<?xml version="1.0" standalone="no"?><svg xmlns="http://www.w3.org/2000/svg" viewBox="0 0 1440 320"><path fill="#0C4F11" fill-opacity="0.1" d="M0,192L30,202.7C60,213,120,235,180,256C240,277,300,299,360,272C420,245,480,171,540,149.3C600,128,660,160,720,192C780,224,840,256,900,245.3C960,235,1020,181,1080,176C1140,171,1200,213,1260,240C1320,267,1380,277,1410,282.7L1440,288L1440,320L1410,320C1380,320,1320,320,1260,320C1200,320,1140,320,1080,320C1020,320,960,320,900,320C840,320,780,320,720,320C660,320,600,320,540,320C480,320,420,320,360,320C300,320,240,320,180,320C120,320,60,320,30,320L0,320Z"></path></svg>